<svg width="30" height="30" viewBox="0 0 30 30" fill="none" xmlns="http://www.w3.org/2000/svg">
<g clip-path="url(#clip0_775_98347)">
<path d="M14.9067 16.5676C12.8861 18.1117 10.6106 18.7111 8.08938 18.4114C4.24836 17.9482 0.998969 15.0145 0.2071 11.2906C-0.885133 6.09531 2.28234 1.23609 7.51596 0.191589C10.2192 -0.35337 12.7041 0.246085 14.9067 1.92638C14.8885 2.0717 14.7884 2.16252 14.6792 2.24427C13.9328 2.82556 13.3503 3.55217 12.8679 4.35144C11.7848 6.14981 11.3024 8.0935 11.5299 10.2098C11.7575 12.2897 12.6039 14.0517 13.9874 15.5958C14.2787 15.9409 14.7429 16.1226 14.9067 16.5676Z" fill="#504D67"/>
<path d="M15 1.96137C16.7385 0.66255 18.6772 -0.0186488 20.8525 0.00859915C25.2033 0.0630951 28.926 3.12395 29.7998 7.38371C30.7828 12.1612 27.943 16.8478 23.2282 18.1376C20.2427 18.955 17.4939 18.3828 15.0091 16.5299C15.6371 16.0122 16.2197 15.44 16.693 14.777C17.6487 13.4509 18.2585 11.9886 18.4587 10.3537C18.6772 8.56446 18.4041 6.85692 17.6305 5.24021C17.0115 3.95047 16.1286 2.86055 15 1.96137Z" fill="#7E7B96"/>
<path d="M15.0021 1.96279C16.1217 2.86198 17.0137 3.9519 17.6235 5.24163C18.3972 6.85834 18.6702 8.56588 18.4518 10.3552C18.2515 11.9991 17.6417 13.4614 16.686 14.7784C16.2127 15.4415 15.6302 16.0137 15.0021 16.5314C14.9657 16.5405 14.9293 16.5586 14.902 16.5677C14.7382 16.1136 14.274 15.941 13.9736 15.6049C12.581 14.0609 11.7345 12.2989 11.5161 10.2189C11.2885 8.10267 11.7709 6.15898 12.8541 4.36062C13.3365 3.56134 13.919 2.83473 14.6654 2.25344C14.7746 2.1717 14.8747 2.08087 14.8929 1.93555C14.9384 1.94463 14.9748 1.95371 15.0021 1.96279Z" fill="#686483"/>
<path d="M3.37709 27.6925C3.37709 27.0476 3.37709 26.3937 3.37709 25.7488C3.37709 25.5944 3.36799 25.44 3.60464 25.4491C4.32369 25.4854 5.05185 25.3673 5.7709 25.5308C6.92685 25.8033 7.50937 26.6298 7.46386 27.9014C7.42745 28.955 6.6993 29.7088 5.59796 29.8996C4.95172 30.0086 4.30549 29.9359 3.65015 29.9722C3.37709 29.9904 3.36799 29.836 3.37709 29.6362C3.37709 28.9913 3.37709 28.3374 3.37709 27.6925ZM3.75937 27.7016C3.75937 28.2284 3.76847 28.7552 3.75937 29.282C3.75027 29.5181 3.84129 29.5998 4.07794 29.5908C4.56034 29.5726 5.04274 29.5908 5.52515 29.5272C6.42624 29.4 6.99966 28.7642 7.06337 27.7924C7.11799 26.9114 6.60828 26.1757 5.7891 25.9305C5.24299 25.767 4.67867 25.8487 4.12345 25.8124C3.85039 25.7942 3.75027 25.876 3.75937 26.1575C3.77757 26.6752 3.75937 27.1929 3.75937 27.7016Z" fill="#918DAC"/>
<path d="M1.54778 21.8717C1.54778 21.572 1.54778 21.2722 1.54778 20.9725C1.55688 20.7182 1.86634 20.5184 2.01197 20.7091C2.16671 20.9089 2.20312 20.8181 2.34875 20.7545C2.72193 20.591 3.12241 20.5638 3.44098 20.8726C3.58661 21.0088 3.65032 20.9997 3.78685 20.8726C4.13273 20.5729 4.54231 20.5729 4.9337 20.7364C5.32508 20.8998 5.45251 21.2541 5.45251 21.6628C5.45251 22.0715 5.44341 22.4802 5.45251 22.8799C5.46161 23.0978 5.3888 23.1614 5.17035 23.1614C4.9428 23.1614 4.88819 23.0706 4.89729 22.8617C4.91549 22.4984 4.89729 22.1351 4.89729 21.7809C4.89729 21.4176 4.75166 21.1632 4.36028 21.136C4.0235 21.1087 3.76865 21.3721 3.75045 21.7809C3.73224 22.1442 3.73224 22.5075 3.75045 22.8617C3.75955 23.0615 3.71404 23.1614 3.47739 23.1614C3.25894 23.1614 3.19523 23.0797 3.19523 22.8617C3.21343 22.4893 3.19523 22.1078 3.19523 21.7354C3.19523 21.3812 3.03139 21.136 2.66731 21.136C2.30324 21.136 2.08479 21.3631 2.07569 21.7445C2.06659 22.1169 2.06659 22.4984 2.07569 22.8708C2.08479 23.0888 2.01197 23.1614 1.79353 23.1614C1.56598 23.1614 1.51137 23.0706 1.52047 22.8708C1.55688 22.5347 1.54778 22.2077 1.54778 21.8717Z" fill="#918DAC"/>
<path d="M28.0134 20.8903C28.0134 20.527 28.0225 20.2454 28.0134 19.9639C28.0043 19.7368 28.1136 19.6914 28.3138 19.6914C28.5323 19.6914 28.5596 19.7913 28.5596 19.973C28.5505 20.9266 28.5596 21.8712 28.5505 22.8249C28.5505 23.1519 28.3411 23.2972 28.0772 23.1065C27.9224 22.9975 27.8769 23.0338 27.7495 23.0974C27.2307 23.3426 26.6208 23.1973 26.2841 22.7523C25.9291 22.289 25.9382 21.517 26.3023 21.072C26.6573 20.6451 27.258 20.527 27.7768 20.7813C27.8314 20.7904 27.8769 20.8267 28.0134 20.8903ZM26.5753 21.8803C26.5571 22.3526 26.8484 22.6887 27.2762 22.6978C27.704 22.7159 28.0317 22.3799 28.0408 21.9257C28.0499 21.4807 27.7222 21.1265 27.3035 21.1174C26.903 21.1265 26.5935 21.4444 26.5753 21.8803Z" fill="#918DAC"/>
<path d="M12.1222 29.9912C11.2575 29.9912 10.4202 29.4372 10.1107 28.538C9.76483 27.5207 10.0652 26.449 10.8571 25.8495C11.5852 25.3046 12.7958 25.2591 13.5421 25.7678C13.6787 25.8586 13.8061 25.9767 13.9153 26.0947C13.9972 26.1856 14.1429 26.2764 13.979 26.4217C13.8243 26.558 13.7424 26.4944 13.615 26.3672C13.0051 25.7405 12.277 25.6406 11.4942 25.9585C10.7114 26.2764 10.402 26.9213 10.3838 27.7205C10.3656 28.5016 10.8298 29.201 11.5124 29.4826C12.2497 29.7823 13.0597 29.6461 13.5967 29.0829C13.7333 28.9376 13.8243 28.8559 13.9881 29.0194C14.1702 29.2101 13.9608 29.2828 13.8698 29.3736C13.442 29.8186 12.905 30.0094 12.1222 29.9912Z" fill="#918DAC"/>
<path d="M8.47316 21.9249C8.47316 22.2246 8.45496 22.5334 8.47316 22.8331C8.50047 23.2419 8.1728 23.26 8.02716 23.1147C7.82692 22.9058 7.745 23.0511 7.60848 23.1147C7.16248 23.3236 6.53445 23.1692 6.20678 22.7786C5.81539 22.2973 5.80629 21.5979 6.17947 21.1074C6.50714 20.6806 7.12607 20.5171 7.59937 20.735C7.7359 20.7986 7.79962 20.9076 7.99076 20.735C8.2001 20.5352 8.45496 20.7169 8.46406 21.0348C8.47316 21.3163 8.47316 21.6251 8.47316 21.9249ZM7.2353 22.706C7.64488 22.6969 7.99076 22.3245 7.98166 21.8976C7.97255 21.4889 7.62668 21.1347 7.2353 21.1256C6.82571 21.1165 6.46163 21.4889 6.46163 21.9158C6.46163 22.3336 6.82571 22.7151 7.2353 22.706Z" fill="#918DAC"/>
<path d="M23.5933 21.9168C23.5933 22.2165 23.5933 22.5162 23.5933 22.816C23.5842 23.1338 23.3203 23.3155 23.1109 23.1066C22.938 22.9249 22.8834 23.043 22.765 23.0975C22.2644 23.3246 21.6637 23.1883 21.3269 22.7796C20.9629 22.3346 20.9538 21.5353 21.2996 21.0993C21.6455 20.6634 22.2553 20.518 22.765 20.7542C22.8834 20.8087 22.938 20.9268 23.1109 20.736C23.3021 20.518 23.5842 20.6997 23.5842 21.0176C23.6024 21.3082 23.5933 21.617 23.5933 21.9168ZM23.0654 21.9077C23.0563 21.4536 22.7286 21.1084 22.3099 21.1266C21.8822 21.1447 21.6 21.4808 21.6091 21.9531C21.6182 22.4072 21.9095 22.6979 22.3372 22.6979C22.7741 22.6979 23.0745 22.3709 23.0654 21.9077Z" fill="#918DAC"/>
<path d="M28.3894 26.9578C28.0526 27.421 27.552 27.6663 27.2334 28.1022C27.0423 28.3656 27.0969 28.4565 27.2698 28.6381C27.6612 29.0468 28.0344 29.4737 28.4349 29.9097C28.1436 30.0187 27.9707 29.9279 27.8068 29.7462C27.4974 29.392 27.1697 29.065 26.8694 28.7108C26.7237 28.5382 26.5417 28.4837 26.3505 28.5473C26.1321 28.62 26.2504 28.8289 26.2322 28.9742C26.214 29.2103 26.2231 29.4556 26.2231 29.7008C26.2231 29.837 26.2413 29.9823 26.032 29.9733C25.8135 29.9642 25.8499 29.8098 25.8499 29.6826C25.8499 28.8561 25.8499 28.0296 25.8499 27.194C25.8499 26.6672 25.8499 26.1404 25.8499 25.6136C25.8499 25.4774 25.8135 25.332 26.032 25.332C26.2413 25.332 26.2231 25.4683 26.2231 25.6136C26.2231 26.3493 26.2231 27.0941 26.2231 27.8298C26.2231 27.9478 26.1412 28.1295 26.3141 28.184C26.4871 28.2476 26.6691 28.2385 26.8147 28.0841C27.0969 27.8025 27.37 27.521 27.6521 27.2485C27.8524 27.0577 28.0253 26.8125 28.3894 26.9578Z" fill="#918DAC"/>
<path d="M20.3425 28.5919C20.0421 28.5919 19.7326 28.6101 19.4414 28.5829C19.0409 28.5465 19.0682 28.7373 19.1774 29.0007C19.4323 29.6001 20.1877 29.8544 20.8249 29.5456C20.9341 29.4911 21.0342 29.4276 21.1343 29.3549C21.2436 29.2822 21.3255 29.2913 21.3983 29.4003C21.4711 29.5002 21.4074 29.5547 21.3437 29.6274C20.9523 30.027 19.9875 30.1178 19.4323 29.7999C18.8407 29.4639 18.5676 28.6737 18.7769 27.938C18.9863 27.2386 19.5688 26.839 20.3152 26.8753C20.9614 26.9117 21.4893 27.4203 21.6167 28.1106C21.6805 28.4466 21.6076 28.6283 21.2072 28.5829C20.9159 28.5647 20.6246 28.5919 20.3425 28.5919ZM19.1046 28.2559C19.7417 28.2559 20.3698 28.2468 20.9978 28.2559C21.2072 28.2559 21.2527 28.2105 21.189 27.9925C21.0342 27.502 20.6064 27.166 20.1149 27.2023C19.5688 27.2386 19.2138 27.6019 19.1046 28.2559Z" fill="#918DAC"/>
<path d="M15.3914 22.1164C15.1912 22.1164 15 22.1073 14.7998 22.1164C14.6996 22.1255 14.5631 22.0528 14.5176 22.18C14.463 22.3162 14.5631 22.4434 14.6632 22.5251C14.9818 22.7976 15.3459 22.7794 15.6736 22.5978C15.9011 22.4706 15.983 22.5524 16.0831 22.7249C16.2379 22.9883 15.9739 22.9974 15.8647 23.0519C15.3732 23.3153 14.6177 23.2245 14.2537 22.8703C13.8623 22.4888 13.7621 21.8167 14.0261 21.2808C14.2719 20.7631 14.8908 20.5088 15.4915 20.6723C15.9375 20.7994 16.3016 21.3625 16.2925 21.8712C16.2834 22.0801 16.2015 22.1255 16.0194 22.1164C15.8101 22.1073 15.6007 22.1164 15.3914 22.1164ZM15.0819 21.7168C15.0819 21.7077 15.0819 21.7168 15.0819 21.7168C15.1456 21.7168 15.2003 21.7258 15.264 21.7077C15.4096 21.6713 15.6645 21.8167 15.6918 21.6259C15.7282 21.3989 15.5461 21.2081 15.3004 21.1355C15.2185 21.1082 15.1183 21.0991 15.0364 21.1173C14.7543 21.1536 14.4994 21.308 14.5267 21.5896C14.5449 21.853 14.8362 21.6623 14.9909 21.7168C15.0182 21.7258 15.0546 21.7168 15.0819 21.7168Z" fill="#918DAC"/>
<path d="M15.4462 27.4021C15.8558 26.9752 16.2745 26.8389 16.7478 26.9025C17.3394 26.9752 17.749 27.3748 17.7854 27.9743C17.8218 28.5646 17.7945 29.1459 17.7945 29.7363C17.7945 29.8635 17.8036 29.9725 17.6215 29.9815C17.4031 29.9906 17.4304 29.8453 17.4304 29.7091C17.4304 29.2458 17.4304 28.7735 17.4304 28.3103C17.4213 27.611 17.1027 27.2567 16.4838 27.2477C15.874 27.2386 15.4553 27.6655 15.4553 28.3103C15.4462 28.7735 15.4553 29.2458 15.4553 29.7091C15.4553 29.8544 15.4644 29.9906 15.255 29.9725C15.073 29.9634 15.0821 29.8362 15.0821 29.7181C15.0821 28.3467 15.0821 26.9752 15.0821 25.6037C15.0821 25.4584 15.0821 25.3312 15.2823 25.3403C15.5099 25.3494 15.4462 25.5129 15.4462 25.6309C15.4462 26.185 15.4462 26.739 15.4462 27.4021Z" fill="#918DAC"/>
<path d="M10.1961 20.6447C10.4236 20.6356 10.6512 20.6538 10.8605 20.7446C10.9697 20.79 11.1427 20.8263 11.0426 21.0261C10.9697 21.1715 10.9242 21.335 10.6876 21.226C10.4691 21.1261 10.2325 21.0625 9.98674 21.117C9.832 21.1442 9.67727 21.2078 9.65907 21.3804C9.64086 21.5529 9.8229 21.5711 9.95033 21.6074C10.187 21.6619 10.4327 21.6801 10.6603 21.7528C10.9515 21.8436 11.17 22.0162 11.1882 22.3613C11.2064 22.6883 11.0608 22.9244 10.7786 23.0516C10.2507 23.2968 9.72278 23.2605 9.21307 23.0152C9.12205 22.9698 8.95822 22.9426 9.07654 22.77C9.16756 22.6429 9.20397 22.4521 9.44062 22.5793C9.69547 22.7155 9.97764 22.7882 10.2689 22.7246C10.4236 22.6883 10.633 22.6519 10.6239 22.443C10.6148 22.2705 10.4418 22.2341 10.2871 22.2069C10.1415 22.1796 9.98674 22.1524 9.84111 22.1251C9.3223 22.0252 9.06744 21.78 9.09475 21.3804C9.12205 20.9807 9.44972 20.6992 9.93213 20.6628C10.014 20.6447 10.1051 20.6447 10.1961 20.6447Z" fill="#918DAC"/>
<path d="M12.0506 21.9711C12.0506 21.8076 12.0506 21.6441 12.0506 21.4715C12.0597 21.299 12.0233 21.1718 11.8049 21.1991C11.6228 21.2172 11.5227 21.1718 11.5318 20.9629C11.5409 20.7903 11.5591 20.6632 11.7776 20.6904C12.1052 20.7268 12.0415 20.4906 12.0506 20.309C12.0597 20.1364 11.996 19.9547 12.2964 19.9457C12.6059 19.9366 12.615 20.1091 12.5876 20.318C12.5512 20.6178 12.6605 20.7358 12.9608 20.6904C13.0336 20.6813 13.1156 20.6995 13.1884 20.6904C13.4159 20.6632 13.4705 20.7631 13.4705 20.972C13.4705 21.19 13.3613 21.1991 13.1884 21.2081C12.5876 21.2263 12.5876 21.2354 12.5967 21.8439C12.5967 21.9529 12.5967 22.0528 12.5967 22.1618C12.6058 22.6705 12.6969 22.7522 13.1884 22.6523C13.3613 22.616 13.4523 22.616 13.5069 22.8067C13.5707 23.0247 13.4796 23.0973 13.2885 23.1609C12.5421 23.3971 12.0688 23.0792 12.0506 22.2981C12.0415 22.18 12.0506 22.071 12.0506 21.9711Z" fill="#918DAC"/>
<path d="M19.9412 23.198C19.2677 23.1889 18.8217 22.9164 18.6579 22.4169C18.494 21.8991 18.5304 21.3996 18.9309 20.9909C19.2677 20.6457 20.0049 20.5186 20.4509 20.7366C20.5784 20.8001 20.815 20.8274 20.6694 21.0817C20.5784 21.2452 20.5147 21.3451 20.2598 21.2452C19.6864 21.009 19.2222 21.2452 19.1403 21.7538C19.031 22.4259 19.4952 22.8437 20.1506 22.653C20.4054 22.5803 20.6421 22.5077 20.6876 22.8256C20.7331 23.1162 20.4145 23.1253 20.2143 23.1889C20.1142 23.207 19.9867 23.1889 19.9412 23.198Z" fill="#918DAC"/>
<path d="M23.865 29.9906C23.1369 29.9815 22.5907 29.591 22.3814 28.9643C22.1721 28.3285 22.3814 27.5837 22.882 27.2023C23.4008 26.8026 24.1836 26.7663 24.7024 27.1205C24.8025 27.1932 25.0301 27.2295 24.8935 27.4384C24.7661 27.6291 24.6478 27.502 24.5204 27.4202C23.956 27.0933 23.3371 27.1841 22.9639 27.6291C22.5998 28.0651 22.6089 28.819 22.9821 29.2549C23.3462 29.6818 23.9469 29.7636 24.5022 29.4548C24.6387 29.3821 24.7752 29.2004 24.9026 29.4457C25.0119 29.6637 24.7843 29.6909 24.6842 29.7636C24.4202 29.9543 24.129 30.027 23.865 29.9906Z" fill="#918DAC"/>
<path d="M16.8386 21.8978C16.8386 21.5799 16.8386 21.262 16.8386 20.9532C16.8386 20.8079 16.8841 20.6081 17.0389 20.6898C17.4212 20.8896 17.7579 20.6081 18.1129 20.6535C18.2312 20.6626 18.4315 20.6081 18.3496 20.8442C18.304 20.9714 18.3587 21.1803 18.0856 21.1712C17.5031 21.1621 17.3847 21.2983 17.3756 21.8796C17.3756 22.2066 17.3574 22.5427 17.3756 22.8696C17.3847 23.0967 17.3028 23.1603 17.0935 23.1603C16.8932 23.1603 16.8204 23.0785 16.8386 22.8878C16.8477 22.7243 16.8386 22.5608 16.8386 22.3883C16.8386 22.2248 16.8386 22.0613 16.8386 21.8978Z" fill="#918DAC"/>
<path d="M24.2843 21.925C24.2843 21.6071 24.3025 21.2892 24.2752 20.9804C24.2479 20.6353 24.5119 20.5989 24.6757 20.6988C24.885 20.8351 25.0034 20.7715 25.1854 20.6898C25.3766 20.608 25.6132 20.5898 25.7861 20.717C25.8772 20.7806 25.7679 20.935 25.7315 21.044C25.686 21.2165 25.5768 21.1711 25.4494 21.162C25.0307 21.1166 24.8304 21.3437 24.8122 21.7343C24.794 22.1248 24.8031 22.5154 24.8122 22.9059C24.8213 23.1057 24.7394 23.1693 24.5483 23.1602C24.3753 23.1511 24.257 23.133 24.2661 22.915C24.2934 22.5789 24.2843 22.252 24.2843 21.925Z" fill="#918DAC"/>
<path d="M2.01346 27.7474C2.01346 28.3923 2.01346 29.0372 2.01346 29.6911C2.01346 29.8183 2.04987 29.9727 1.83142 29.9727C1.61298 29.9818 1.63118 29.8365 1.63118 29.7002C1.63118 28.3741 1.63118 27.0572 1.63118 25.7311C1.63118 25.6039 1.59477 25.4586 1.81322 25.4495C2.07718 25.4404 2.00436 25.6312 2.00436 25.7583C2.02257 26.4214 2.01346 27.0844 2.01346 27.7474Z" fill="#918DAC"/>
</g>
<defs>
<clipPath id="clip0_775_98347">
<rect width="30" height="30" fill="white"/>
</clipPath>
</defs>
</svg>
