<svg width="31" height="31" viewBox="0 0 31 31" fill="none" xmlns="http://www.w3.org/2000/svg">
<path d="M0 0.0104942C0.241531 0.0104942 0.441057 0.0104942 0.651084 0.0104942C10.5434 0.0104942 20.4356 0.0104942 30.3279 0C30.8425 0 31 0.104942 31 0.661137C30.979 10.5572 30.979 20.4533 31 30.3494C31 30.9056 30.8425 31.0105 30.3279 31.0105C20.4356 31 10.5434 31 0.651084 31C0.441057 31 0.241531 31 0 31C0 20.6527 0 10.3788 0 0.0104942ZM30.2334 15.5525C20.3831 15.5525 10.5644 15.5525 0.745596 15.5525C0.745596 20.4638 0.745596 25.3541 0.745596 30.2234C10.5959 30.2234 20.4041 30.2234 30.2334 30.2234C30.2334 25.3331 30.2334 20.4638 30.2334 15.5525ZM24.5522 4.39709C24.1111 4.39709 23.6806 4.41808 23.25 4.39709C22.7249 4.36561 22.4099 4.60697 22.2104 5.08971C21.5488 6.71632 20.8557 8.33243 20.1731 9.95904C19.9946 10.3893 19.8161 10.8196 19.6165 11.3023C20.0576 11.3023 20.4251 11.2603 20.7822 11.3128C21.3072 11.3758 21.6013 11.2183 21.7063 10.6831C21.7378 10.5257 21.9163 10.2949 22.0318 10.2949C22.7354 10.2529 23.4495 10.2739 24.1531 10.2739C24.2476 10.6622 24.3211 10.977 24.3946 11.2708C24.9512 11.2708 25.4658 11.2708 26.0119 11.2708C25.5498 9.06703 25.0982 6.90521 24.6467 4.7329C24.6257 4.63846 24.5942 4.53351 24.5522 4.39709ZM3.875 4.40758C3.8645 4.44956 3.854 4.49154 3.8435 4.53351C4.32656 4.70142 4.80962 4.85884 5.29268 5.02674C5.70224 5.17366 5.94377 5.44651 6.03828 5.88727C6.1853 6.5694 6.37432 7.24103 6.55285 7.91266C6.84688 9.03555 7.14092 10.1584 7.43496 11.2918C7.93902 11.2918 8.39058 11.2708 8.84214 11.3023C9.18869 11.3233 9.36721 11.2183 9.49323 10.8825C10.1758 9.20345 10.8899 7.53487 11.583 5.86628C11.7825 5.39404 11.982 4.91131 12.1921 4.38659C11.646 4.38659 11.1839 4.40758 10.7114 4.3761C10.4068 4.35511 10.2913 4.48104 10.1863 4.75389C9.95528 5.39404 9.69275 6.0237 9.44072 6.65335C9.13618 7.42993 8.82114 8.196 8.46409 9.09851C8.39058 8.79418 8.35908 8.62627 8.32757 8.45836C8.11755 7.36696 7.90752 6.26506 7.70799 5.17366C7.63449 4.75389 7.43496 4.41808 6.9834 4.40758C5.96477 4.38659 4.92514 4.40758 3.875 4.40758ZM14.5759 11.0714C15.9726 11.5017 17.3062 11.6276 18.6189 10.914C19.732 10.3158 20.2991 8.3954 18.6609 7.45091C18.3879 7.2935 18.1043 7.15707 17.8418 6.98917C17.5373 6.80027 17.0857 6.66385 17.1907 6.22309C17.2957 5.75085 17.7683 5.71936 18.1778 5.69837C18.3879 5.68788 18.5979 5.70887 18.7974 5.75085C19.102 5.80332 19.396 5.89777 19.711 5.97123C19.8161 5.48849 19.9001 5.04773 19.9946 4.61747C18.8604 4.06127 17.1592 4.1872 16.2141 4.86933C15.0169 5.74035 15.0169 7.22004 16.2351 8.04909C16.5606 8.26946 16.9387 8.43737 17.2852 8.63676C17.5688 8.80467 17.9573 9.01456 17.7893 9.38186C17.6633 9.64421 17.3062 9.82261 17.0017 9.94854C16.7917 10.0325 16.5186 10.0115 16.2771 9.95904C15.815 9.87508 15.374 9.73866 14.8909 9.62322C14.7859 10.0745 14.6914 10.5257 14.5759 11.0714ZM13.0217 4.42857C12.5281 6.72681 12.0451 8.99357 11.5515 11.3023C12.0766 11.3023 12.5176 11.2918 12.9482 11.3128C13.2317 11.3233 13.3472 11.2393 13.3997 10.956C13.5362 10.2004 13.7148 9.45531 13.8723 8.71022C14.1768 7.30399 14.4709 5.88727 14.7859 4.43907C14.1873 4.42857 13.6308 4.42857 13.0217 4.42857Z" fill="#918DAC"/>
<path d="M20.8434 23.0245C21.0534 23.6122 21.2319 24.1474 21.4209 24.6931C20.9379 24.882 20.6648 24.8086 20.5808 24.3153C20.5598 24.1579 20.5073 24.011 20.4758 23.8641C20.3603 23.4233 20.0768 23.2869 19.5937 23.3918C19.5937 23.8221 19.5937 24.2629 19.5937 24.7456C19.3627 24.7456 19.1737 24.7456 18.9531 24.7456C18.9531 23.6122 18.9531 22.4788 18.9531 21.23C19.3732 21.23 19.7827 21.209 20.1923 21.23C20.6648 21.251 21.1059 21.3979 21.2529 21.9122C21.3894 22.4159 21.2109 22.8042 20.8434 23.0245ZM19.6042 22.9511C19.9718 22.7832 20.2973 22.6992 20.5388 22.5103C20.6228 22.4474 20.6018 22.0276 20.4968 21.9646C20.2448 21.8177 19.9298 21.7757 19.6042 21.6708C19.6042 22.1535 19.6042 22.4684 19.6042 22.9511Z" fill="#918DAC"/>
<path d="M15.5514 21.262C15.7404 21.262 15.9294 21.262 16.1814 21.262C16.1814 21.7342 16.1814 22.1854 16.1814 22.6367C16.1814 22.8676 16.1814 23.0879 16.1814 23.3188C16.2024 23.9695 16.444 24.2948 16.8955 24.2843C17.3366 24.2738 17.5781 23.9485 17.5886 23.2978C17.5991 22.8046 17.5886 22.3219 17.5886 21.8286C17.5886 21.6607 17.5886 21.4823 17.5886 21.262C17.8092 21.2515 17.9982 21.241 18.3132 21.2305C18.2712 22.1645 18.2817 23.067 18.1557 23.9485C18.0612 24.5781 17.4626 24.872 16.738 24.83C16.1079 24.788 15.6354 24.4627 15.5829 23.8225C15.4989 23.004 15.5514 22.1645 15.5514 21.262Z" fill="#918DAC"/>
<path d="M10.5864 24.2204C11.0695 24.2204 11.5105 24.2204 11.9831 24.2204C11.9831 24.4198 11.9831 24.5667 11.9831 24.7556C11.2795 24.7556 10.5969 24.7556 9.88281 24.7556C9.88281 23.5802 9.88281 22.4468 9.88281 21.2715C10.5654 21.2715 11.227 21.2715 11.9096 21.2715C11.9096 21.4499 11.9096 21.5968 11.9096 21.7962C11.4685 21.7962 11.038 21.7962 10.5864 21.7962C10.5864 22.1005 10.5864 22.3524 10.5864 22.6777C10.996 22.6777 11.4055 22.6777 11.8361 22.6777C11.8361 22.8876 11.8361 23.0345 11.8361 23.2339C11.416 23.2339 11.017 23.2339 10.5864 23.2339C10.5864 23.5592 10.5864 23.8426 10.5864 24.2204Z" fill="#918DAC"/>
<path d="M21.8438 24.7568C21.8438 23.5814 21.8438 22.4586 21.8438 21.2832C22.5053 21.2832 23.1564 21.2832 23.8495 21.2832C23.8495 21.4301 23.8495 21.5875 23.8495 21.7974C23.4085 21.7974 22.9779 21.7974 22.5263 21.7974C22.5263 22.1018 22.5263 22.3536 22.5263 22.6789C22.9464 22.6789 23.3559 22.6789 23.7655 22.6789C23.902 23.0777 23.818 23.2666 23.4085 23.2351C23.1354 23.2141 22.8519 23.2351 22.5368 23.2351C22.5368 23.55 22.5368 23.8333 22.5368 24.1901C22.9779 24.1901 23.44 24.1901 23.9335 24.1901C23.9335 24.4105 23.9335 24.5784 23.9335 24.7568C23.2509 24.7568 22.5788 24.7568 21.8438 24.7568Z" fill="#918DAC"/>
<path d="M9.26144 21.2499C9.16693 21.5542 9.11442 21.7011 9.07242 21.8376C8.76788 21.8061 8.49484 21.7431 8.23231 21.7746C8.08529 21.7956 7.88577 21.953 7.83326 22.0999C7.80175 22.2049 7.93827 22.4252 8.06429 22.5092C8.27432 22.6561 8.53685 22.7191 8.76788 22.845C9.16693 23.0549 9.41896 23.3802 9.36646 23.8525C9.31395 24.3142 9.03041 24.6605 8.57886 24.7235C8.09579 24.7864 7.60223 24.734 7.03516 24.734C7.10867 24.4191 7.15067 24.2617 7.19268 24.1043C7.51822 24.1568 7.81226 24.2617 8.08529 24.2302C8.28482 24.2093 8.47384 24.0099 8.66287 23.8944C8.54735 23.7055 8.46334 23.4747 8.29532 23.3382C8.1168 23.1913 7.85426 23.1388 7.64424 23.0234C7.28719 22.824 7.05616 22.5197 7.11917 22.0789C7.18218 21.6277 7.46571 21.3233 7.88577 21.2499C8.29532 21.1974 8.72587 21.2499 9.26144 21.2499Z" fill="#918DAC"/>
<path d="M15.0602 21.3877C15.0077 21.5452 14.9657 21.6816 14.9237 21.8285C13.6111 21.5976 12.8129 21.9754 13.086 23.4656C13.212 24.1372 13.6531 24.2842 14.9342 24.2107C14.9657 24.3471 14.9972 24.494 15.0182 24.641C14.1256 25.0292 13.149 24.8403 12.6554 24.2107C12.1619 23.581 12.1724 22.5001 12.6869 21.8705C13.212 21.2093 14.1886 20.9995 15.0602 21.3877Z" fill="#918DAC"/>
<path d="M23.3543 6.40112C23.5223 7.18819 23.6904 7.98575 23.8689 8.82529C23.3648 8.82529 22.8923 8.82529 22.3672 8.82529C22.6717 7.99624 22.9658 7.18819 23.2493 6.39062C23.2913 6.40112 23.3228 6.40112 23.3543 6.40112Z" fill="#918DAC"/>
</svg>
