<svg width="39" height="13" viewBox="0 0 39 13" fill="none" xmlns="http://www.w3.org/2000/svg">
<g clip-path="url(#clip0_775_98295)">
<path d="M38.9985 12.7892C38.9576 12.7892 38.9371 12.7997 38.9064 12.7997C38.0056 12.7997 37.0946 12.7997 36.1938 12.7997C36.1221 12.7997 36.0914 12.7787 36.071 12.6943C35.9584 12.125 35.8458 11.5556 35.7229 10.9968C35.7025 10.8914 35.7025 10.8914 35.5899 10.8914C34.3103 10.8914 33.0308 10.8914 31.741 10.8914C31.6592 10.8914 31.6284 10.923 31.608 10.9863C31.4135 11.5662 31.219 12.1461 31.0245 12.7154C31.004 12.7787 30.9733 12.7892 30.9119 12.7892C29.8678 12.7892 28.8237 12.7892 27.7796 12.7892C27.7592 12.7892 27.7284 12.7892 27.6875 12.7892C27.708 12.747 27.7182 12.7049 27.7284 12.6732C29.182 9.07793 30.6355 5.48263 32.0891 1.89788C32.2119 1.60267 32.3245 1.30745 32.4678 1.02278C32.6214 0.706477 32.8568 0.453435 33.1946 0.316371C33.3686 0.242568 33.5529 0.210938 33.7371 0.210938C34.6072 0.210938 35.4875 0.210938 36.3576 0.210938C36.4088 0.210938 36.4292 0.232024 36.4395 0.274198C36.7261 1.68701 37.0127 3.08928 37.2891 4.5021C37.5859 5.94654 37.8725 7.39099 38.1694 8.83543C38.4355 10.1428 38.7017 11.4502 38.9678 12.7576C38.9985 12.747 38.9985 12.7576 38.9985 12.7892ZM35.2214 8.32935C34.8938 6.74784 34.5662 5.17687 34.2387 3.61645C34.2284 3.61645 34.2284 3.61645 34.2182 3.61645C33.6757 5.18742 33.1229 6.74784 32.5702 8.32935C33.4607 8.32935 34.3308 8.32935 35.2214 8.32935Z" fill="#918DAC"/>
<path d="M0 0.590102C0.0204724 0.463581 0.0409449 0.347604 0.0614173 0.231627C0.0614173 0.21054 0.0818898 0.199997 0.102362 0.199997C0.122835 0.199997 0.133071 0.199997 0.153543 0.199997C1.87323 0.199997 3.59291 0.199997 5.32283 0.199997C5.73228 0.199997 6.10079 0.30543 6.40787 0.600645C6.65354 0.8326 6.78661 1.13836 6.84803 1.47575C6.96063 2.07672 7.06299 2.66715 7.17559 3.26812C7.3189 4.04833 7.46221 4.82854 7.60551 5.6193C7.74882 6.39951 7.89213 7.19026 8.04567 7.97047C8.08661 8.20243 8.12756 8.43438 8.17874 8.66634C8.18898 8.69797 8.18898 8.71905 8.19921 8.77177C8.21969 8.7296 8.22992 8.70851 8.24016 8.67688C9.31496 5.88288 10.3898 3.08889 11.4646 0.284344C11.4953 0.21054 11.526 0.189453 11.5976 0.189453C12.6315 0.189453 13.6756 0.189453 14.7094 0.189453C14.7402 0.189453 14.7606 0.189453 14.8016 0.189453C14.7913 0.231627 14.7811 0.263257 14.7606 0.294887C13.8189 2.63552 12.8669 4.97615 11.915 7.31678C11.1882 9.1197 10.4512 10.9121 9.72441 12.715C9.70394 12.7783 9.67323 12.7993 9.61181 12.7993C8.55748 12.7993 7.51339 12.7993 6.45905 12.7993C6.3874 12.7993 6.36693 12.7677 6.34646 12.7045C5.92677 11.0175 5.49685 9.34111 5.07717 7.65417C4.65748 5.99886 4.24803 4.35409 3.82835 2.69878C3.79764 2.59335 3.76693 2.48791 3.72598 2.38248C3.62362 2.07672 3.42913 1.83422 3.15276 1.68661C2.88661 1.53901 2.62047 1.42303 2.34409 1.30705C1.65827 1.01184 0.941732 0.80097 0.214961 0.632275C0.153543 0.621732 0.0818898 0.611189 0 0.590102Z" fill="#918DAC"/>
<path d="M18.8672 12.3034C19.0617 11.3861 19.2459 10.4794 19.4302 9.56211C19.4609 9.57266 19.4711 9.5832 19.4916 9.59375C20.1672 9.95222 20.8735 10.1947 21.6207 10.3107C22.0302 10.374 22.4396 10.4056 22.8593 10.374C23.2995 10.3318 23.7089 10.2369 24.0774 9.96276C24.19 9.87842 24.2924 9.77298 24.3743 9.65701C24.6199 9.30907 24.6097 8.90843 24.3538 8.57104C24.2105 8.38126 24.0262 8.2231 23.8215 8.09658C23.4633 7.87517 23.0947 7.6643 22.7262 7.45344C22.2247 7.16877 21.7231 6.88409 21.2829 6.50453C20.853 6.13551 20.505 5.70323 20.3105 5.15498C20.157 4.70161 20.1262 4.2377 20.1774 3.77379C20.2388 3.19391 20.4129 2.65619 20.7199 2.16066C21.1192 1.52805 21.6719 1.06414 22.3168 0.716211C22.9003 0.399909 23.5349 0.210128 24.19 0.0941509C24.7428 -0.000739566 25.2955 -0.0218263 25.8483 0.00980382C26.7184 0.0519774 27.5475 0.210128 28.3562 0.515886C28.4278 0.536973 28.4381 0.568603 28.4176 0.642407C28.2436 1.47534 28.0695 2.29772 27.8955 3.13065C27.8955 3.15173 27.8853 3.17282 27.8751 3.19391C27.7113 3.13065 27.5475 3.05684 27.3735 2.99358C26.6467 2.73 25.8892 2.57185 25.1113 2.61402C24.6609 2.63511 24.231 2.71946 23.8522 2.99358C23.6373 3.15173 23.4735 3.34151 23.4428 3.62619C23.4223 3.80542 23.4633 3.96357 23.5554 4.11118C23.7089 4.34314 23.9136 4.51183 24.1491 4.64889C24.5892 4.91248 25.0396 5.16552 25.49 5.41856C25.9609 5.69269 26.4215 5.97736 26.8207 6.35692C27.2916 6.79975 27.6294 7.32692 27.7727 7.98061C27.8648 8.3918 27.8648 8.80299 27.8136 9.21418C27.7522 9.79407 27.568 10.3423 27.2507 10.8273C26.8514 11.4599 26.2987 11.9238 25.6538 12.2718C25.0499 12.5881 24.4152 12.7884 23.7499 12.8938C23.2688 12.9782 22.7877 13.0098 22.2963 12.9993C21.1499 12.9782 20.0341 12.7673 18.9593 12.3456C18.9388 12.335 18.9184 12.3245 18.8979 12.3139C18.8979 12.3139 18.8877 12.3139 18.8672 12.3034Z" fill="#918DAC"/>
<path d="M13.5547 12.788C14.4248 8.59176 15.2846 4.39549 16.1547 0.199219C17.1988 0.199219 18.2429 0.199219 19.2972 0.199219C19.2767 0.325739 19.246 0.441717 19.2256 0.557694C18.9287 2.01268 18.6319 3.46767 18.3248 4.92266C17.9972 6.49362 17.6799 8.05404 17.3523 9.62501C17.1374 10.6477 16.9326 11.6704 16.7279 12.6931C16.7074 12.7775 16.6767 12.7986 16.6051 12.7986C15.6224 12.7986 14.6397 12.7986 13.657 12.7986C13.6263 12.788 13.5956 12.788 13.5547 12.788Z" fill="#918DAC"/>
</g>
<defs>
<clipPath id="clip0_775_98295">
<rect width="39" height="13" fill="white"/>
</clipPath>
</defs>
</svg>
